<svg width="58" height="48" viewBox="0 0 58 48" fill="none" xmlns="http://www.w3.org/2000/svg">
<path d="M4.57163 44.1789H22.9165C23.8462 46.107 25.7915 47.3525 27.9868 47.3525H29.1453C31.3428 47.3525 33.287 46.1075 34.2167 44.1789H52.5716C54.4622 44.1789 56.0001 42.641 56.0001 40.7504V7.89324C56.0001 6.00261 54.4622 4.46466 52.5716 4.46466H50.72V2.93342C50.72 1.67281 49.6943 0.647705 48.4343 0.647705H8.69774C7.4377 0.647705 6.41203 1.67281 6.41203 2.93342V4.46466H4.57163C2.68101 4.46466 1.14307 6.00261 1.14307 7.89324V40.7504C1.14307 42.641 2.68101 44.1789 4.57163 44.1789ZM48.4321 37.1276H29.7145V10.5699C34.0408 11.1358 37.3953 14.8374 37.3953 19.3157V20.3464L37.1241 20.2867C36.8294 20.2236 36.5203 20.2766 36.2636 20.4396C36.008 20.6031 35.8272 20.8609 35.7624 21.1572L33.9432 29.4362C33.8082 30.0517 34.1977 30.6605 34.8138 30.7961L38.7457 31.6628C38.9488 31.7057 39.1553 31.7281 39.3618 31.7281C40.7446 31.7281 41.922 30.7822 42.2234 29.4256L43.2758 24.6377C43.6229 23.0657 42.6263 21.5021 41.0493 21.1516L39.681 20.8501V19.3157C39.681 13.5746 35.3052 8.83704 29.7145 8.26031V2.93342H48.4343L48.4321 37.1276ZM37.749 22.7649L40.556 23.3832C40.9064 23.4613 41.1207 23.795 41.0437 24.1455L39.9912 28.9323C39.9153 29.2783 39.5325 29.4931 39.2301 29.429L36.4198 28.8095L37.749 22.7649ZM8.69774 2.93342H27.4287V8.25862C21.8325 8.83005 17.4511 13.5707 17.4511 19.3157V20.8494L16.0805 21.1522C15.3172 21.3218 14.6654 21.7766 14.2468 22.4329C13.8261 23.0908 13.6877 23.8743 13.8573 24.6354L14.9076 29.4178C15.1922 30.7565 16.3964 31.7281 17.7714 31.7281C17.9779 31.7281 18.1843 31.7057 18.3953 31.6611L22.3105 30.7961C22.9254 30.66 23.3149 30.0517 23.1799 29.4362L21.3607 21.1572C21.2959 20.8609 21.1151 20.6025 20.8596 20.4396C20.6029 20.2766 20.2926 20.223 19.9979 20.2867L19.7368 20.3444V19.3157C19.7368 14.8336 23.0969 11.1292 27.4287 10.5682V37.1276H8.69774V5.60752V2.93342ZM19.3741 22.766L20.7044 28.8101L17.9098 29.4273C17.566 29.5048 17.2156 29.2777 17.1419 28.9356L16.0895 24.1421C16.0515 23.9758 16.0817 23.8056 16.1721 23.6639C16.2636 23.5205 16.4076 23.4211 16.5738 23.3837L19.3741 22.766ZM3.42878 7.89324C3.42878 7.26321 3.94105 6.75038 4.57163 6.75038H6.41203V37.1276C6.41203 38.3882 7.4377 39.4133 8.69774 39.4133H48.4343C49.6943 39.4133 50.72 38.3882 50.72 37.1276V6.75038H52.5716C53.2022 6.75038 53.7144 7.26321 53.7144 7.89324V40.7504C53.7144 41.3804 53.2022 41.8932 52.5716 41.8932H33.4399C32.9377 41.8932 32.4946 42.2208 32.3473 42.7007C31.9131 44.1159 30.6263 45.0668 29.1453 45.0668H27.9868C26.5113 45.0668 25.2256 44.1198 24.7803 42.6873C24.6285 42.2141 24.1888 41.8932 23.6922 41.8932H4.57163C3.94105 41.8932 3.42878 41.3804 3.42878 40.7504V7.89324Z" fill="#FF6B09"/>
</svg>
