<svg width="66" height="48" viewBox="0 0 66 48" fill="none" xmlns="http://www.w3.org/2000/svg">
<path d="M29.3999 6.91205H8.94043V8.44397H29.3999V6.91205Z" fill="white"/>
<path d="M29.4 12.6238H12.0044V14.1558H29.4V12.6238Z" fill="white"/>
<path d="M29.3999 18.3361H8.94043V19.868H29.3999V18.3361Z" fill="white"/>
<path d="M29.4 24.0479H12.0044V25.5798H29.4V24.0479Z" fill="white"/>
<path d="M29.3999 29.7596H8.94043V31.2916H29.3999V29.7596Z" fill="white"/>
<path d="M29.4 35.4719H12.0044V37.0038H29.4V35.4719Z" fill="white"/>
<path d="M57.4848 6.91205H37.0254V8.44397H57.4848V6.91205Z" fill="white"/>
<path d="M54.421 12.6238H37.0254V14.1558H54.421V12.6238Z" fill="white"/>
<path d="M57.4848 18.3361H37.0254V19.868H57.4848V18.3361Z" fill="white"/>
<path d="M54.421 24.0479H37.0254V25.5798H54.421V24.0479Z" fill="white"/>
<path d="M57.4848 29.7596H37.0254V31.2916H57.4848V29.7596Z" fill="white"/>
<path d="M54.421 35.4719H37.0254V37.0038H54.421V35.4719Z" fill="white"/>
<path d="M64.8722 5.16817H62.0637V0.949918C62.0637 0.527045 61.7206 0.18396 61.2977 0.18396H38.4008C36.1664 0.18396 34.2297 1.39193 33.2133 3.20017C32.1968 1.39174 30.259 0.18396 28.0245 0.18396H5.12753C4.70466 0.18396 4.36157 0.527045 4.36157 0.949918V5.16817H1.55307C1.13019 5.16817 0.787109 5.51126 0.787109 5.93413V47.0505C0.787109 47.4734 1.13019 47.8165 1.55307 47.8165C9.24331 47.8165 57.1544 47.8165 64.8722 47.8165C65.295 47.8165 65.6381 47.4734 65.6381 47.0505V5.93413C65.6381 5.51126 65.295 5.16817 64.8722 5.16817ZM38.4008 1.71588H60.5317C60.5317 8.57507 60.5317 26.6438 60.5317 42.741H36.7666C35.7132 42.741 34.6599 43.1853 33.9786 43.7613V6.12812C33.9786 3.68285 35.9363 1.71588 38.4008 1.71588ZM5.89349 1.71588H28.0245C30.4196 1.71588 32.3579 3.57991 32.4372 5.95957C32.4382 5.99248 32.4412 6.0957 32.4467 6.12812V6.1341V6.1356V43.7583C31.7672 43.1846 30.7252 42.741 29.6686 42.741H5.89349C5.89349 26.6491 5.89349 8.57287 5.89349 1.71588ZM2.31902 6.70009H4.36157V43.507C4.36157 43.9299 4.70466 44.2729 5.12753 44.2729H29.6686C30.8362 44.2729 31.9645 45.0389 32.3257 46.2846H2.31902V6.70009ZM64.1062 46.2846H34.0999C34.4636 45.0329 35.5806 44.2729 36.7666 44.2729H61.2977C61.7206 44.2729 62.0637 43.9299 62.0637 43.507V6.70009H64.1062V46.2846Z" fill="white"/>
</svg>
