<svg width="49" height="48" viewBox="0 0 49 48" fill="none" xmlns="http://www.w3.org/2000/svg">
<path d="M2.98975 18.837V23.0841C2.98975 23.3122 3.0944 23.5272 3.27381 23.6689C6.17637 25.9534 9.81839 27.2122 13.5295 27.2122C14.6401 27.2122 15.7517 27.096 16.8386 26.8765C19.1554 27.9006 21.6212 28.4245 24.1737 28.4245C26.7343 28.4245 29.2007 27.9003 31.5093 26.8766C36.1456 27.8129 41.0858 26.8073 45.0729 23.6689C45.2523 23.5272 45.3568 23.3122 45.3568 23.0841V18.837C45.3568 18.2138 45.0474 17.6457 44.4946 17.2963L38.6938 14.0328C39.9628 12.4226 40.9082 10.13 41.0727 8.16353C41.5541 4.77872 38.7954 1.19389 34.8244 1.19389C33.1547 1.19389 31.5674 1.88125 30.4027 3.03409C30.3623 3.07404 30.3164 3.10773 30.2772 3.14879C30.2412 3.18628 30.2122 3.23002 30.1774 3.26847C30.1541 3.29398 30.1338 3.32218 30.111 3.34806C28.9761 1.27846 26.7947 -0.000305176 24.2245 -0.000305176C23.9749 -0.000305176 23.7296 0.0168026 23.4867 0.0414973C23.472 0.0406048 23.4594 0.0330922 23.4444 0.0330922C23.3064 0.0330922 23.0144 0.0693904 22.8582 0.114466C22.8351 0.12116 22.8185 0.13745 22.7967 0.146078C20.8774 0.534201 19.2516 1.69723 18.2772 3.38004C17.1054 2.0135 15.3826 1.19456 13.5091 1.19456C7.64693 1.19456 5.04614 8.1125 9.6735 14.0659L3.81931 17.316C3.29991 17.645 2.98975 18.2138 2.98975 18.837ZM31.4947 25.2421C31.3689 25.3034 31.2445 25.369 31.1177 25.4268L31.1176 25.4268C31.1167 25.4272 31.1158 25.4278 31.1148 25.4282C28.9365 26.4291 26.6012 26.9369 24.1737 26.9369C21.7534 26.9369 19.4182 26.4291 17.2296 25.4268C16.1647 24.9422 15.1347 24.3263 14.1621 23.5955V19.2903C14.1621 19.1435 14.2333 19.0135 14.3154 18.959L21.1284 15.1723C21.976 15.8919 23.0589 16.4196 24.181 16.4196C25.2618 16.4196 26.4291 15.8842 27.2596 15.1547L33.9899 18.9343C34.1141 19.0142 34.1853 19.1435 34.1853 19.2903V23.5948C33.3284 24.2387 32.426 24.7871 31.4947 25.2421ZM43.7313 18.5726C43.8191 18.6278 43.8692 18.7244 43.8692 18.837V22.7181C40.9165 24.9341 37.3635 25.9399 33.764 25.6875C34.3177 25.3418 34.9208 24.9131 35.3882 24.5471C35.5676 24.4062 35.6729 24.1904 35.6729 23.9616V19.2903C35.6729 18.638 35.3452 18.0372 34.7576 17.6603L31.1825 15.6511L32.0519 15.1695C33.1064 16.0294 34.0119 16.2852 34.8244 16.2852C35.8181 16.2852 36.8645 15.7977 37.6414 15.1469L43.7313 18.5726ZM34.8244 2.68153C36.8951 2.68153 38.7139 4.03468 39.3563 5.89504C38.1069 5.74679 36.8851 5.1301 36.0012 4.18218C35.8414 4.0108 35.614 3.92214 35.378 3.94973C35.1455 3.97443 34.9385 4.10735 34.8186 4.30788C33.9702 5.72939 32.5793 6.67805 30.9972 6.94754C30.9973 6.94605 30.997 6.94471 30.997 6.94322C31.004 6.61959 30.9852 6.29164 30.9482 5.96369C30.9444 5.93007 30.9412 5.89704 30.937 5.8638C30.8891 5.49122 30.7769 5.02566 30.7546 4.95069C31.5993 3.59746 33.1683 2.68153 34.8244 2.68153ZM30.8342 8.46522C32.7135 8.25933 34.4132 7.31498 35.5806 5.82237C36.7312 6.76605 38.191 7.33789 39.6334 7.40699C39.6223 10.0949 37.4268 14.7976 34.8244 14.7976C32.8186 14.7976 31.1061 11.929 30.4662 9.94021C30.6288 9.42869 30.7473 8.93665 30.8342 8.46522ZM30.9853 14.0592L29.6565 14.7951L28.3145 14.0414C28.812 13.4216 29.2682 12.7019 29.6589 11.9212C30.0345 12.7108 30.4845 13.4363 30.9853 14.0592ZM28.9801 9.69691C28.2627 11.8368 26.4228 14.932 24.181 14.932C21.5676 14.932 19.3421 10.6357 18.918 7.88817C19.0312 7.86013 22.5624 8.07769 24.9923 4.88679C26.2258 5.91862 27.8899 6.60151 29.5084 6.66927C29.5275 7.63914 29.2922 8.77866 28.9801 9.69691ZM24.2245 1.48733C28.394 1.48733 29.1877 5.07609 29.253 5.15055C27.7412 4.99703 26.3616 4.25633 25.4085 3.23716C25.2487 3.06578 25.0162 2.98002 24.7846 3.00546C24.5514 3.0309 24.3444 3.16456 24.2245 3.36651C23.3986 4.76384 22.1033 5.7494 20.6036 6.16824C20.0246 6.33002 19.3992 6.40381 18.854 6.39853C19.0581 3.66574 21.2483 1.48733 24.2245 1.48733ZM18.6918 11.9069C19.0776 12.679 19.536 13.4165 20.0608 14.0644L18.7477 14.7944L17.3874 14.0298C17.9033 13.3723 18.3412 12.6365 18.6918 11.9069ZM13.5091 2.6822C15.1959 2.6822 16.7416 3.53825 17.6029 4.95292C17.5597 5.10287 17.4433 5.69978 17.4279 5.77446C16.3928 5.52677 15.4419 4.97538 14.6967 4.18076C14.5362 4.01006 14.3096 3.92504 14.0727 3.94973C13.8403 3.97517 13.6333 4.10884 13.5142 4.31004C12.5193 5.98905 10.6931 7.03189 8.74844 7.03241C8.98526 4.59209 11.0254 2.6822 13.5091 2.6822ZM8.81381 8.51625C10.9513 8.49542 12.9693 7.48792 14.2776 5.82237C15.1713 6.55815 16.2328 7.0426 17.3608 7.26388C17.4045 8.12619 17.6292 9.174 17.8862 9.94675C17.4756 11.2063 16.6875 12.7078 15.7101 13.705C15.7039 13.7111 15.6957 13.714 15.6897 13.7204C15.0781 14.3647 14.2079 14.7983 13.5236 14.7983C11.1326 14.7983 9.26241 11.0361 8.81381 8.51625ZM4.47735 18.837C4.47735 18.7244 4.52749 18.6285 4.57836 18.5944L10.7522 15.1682C11.1225 15.4766 11.2077 15.5118 11.2823 15.5663L11.282 15.5668C12.0086 16.0497 12.6745 16.2903 13.5832 16.2903C14.5508 16.2903 15.4317 15.8803 16.2069 15.249C16.2505 15.2148 16.2975 15.1817 16.339 15.1469L17.2201 15.6424L13.5505 17.6835C13.0021 18.0372 12.6745 18.638 12.6745 19.2903V23.9616C12.6745 24.1897 12.7791 24.4054 12.9593 24.5464C13.4343 24.9196 14.0503 25.3548 14.5834 25.6882C10.9319 25.9374 7.37923 24.8958 4.47735 22.7181V18.837Z" fill="#FF6B09"/>
<path d="M46.8879 31.169C45.9726 30.5937 44.8461 30.5341 43.8771 31.0041L34.6979 35.4385C34.6659 33.7204 33.2637 32.3312 31.5375 32.3312L26.2742 32.3326C23.6789 30.0765 20.3623 28.6949 17.3464 28.6223C14.3724 28.5518 11.7027 28.532 10.4576 28.5264V27.0235H0V44.299H10.4576V42.2302C13.3254 43.8755 20.866 47.9977 24.4445 47.9977C24.5258 47.9977 24.6051 47.9956 24.6813 47.9912C30.9746 47.6382 45.8172 37.1936 46.7963 36.4999C47.7537 35.9442 48.3472 34.9156 48.3472 33.8065C48.3472 32.7278 47.8017 31.7421 46.8879 31.169ZM8.96996 42.8114H1.4876V28.5111H8.96996V42.8114ZM46.0307 35.2243C46.0083 35.2367 45.9857 35.2505 45.9647 35.2658C45.8114 35.3747 30.5439 46.1724 24.5985 46.5065C24.5397 46.5094 24.4801 46.5109 24.4176 46.5109C21.2789 46.5109 13.6263 42.382 10.4576 40.5093V30.0141C11.698 30.0197 14.3523 30.0396 17.3108 30.1099C20.0659 30.176 23.1247 31.4915 25.4941 33.6285L25.7063 33.8202L31.5375 33.8188C32.4629 33.8188 33.2161 34.5713 33.2161 35.4967C33.2161 36.4222 32.4636 37.1754 31.5383 37.1754H20.8251V38.663H31.5383C32.5649 38.663 33.4698 38.1639 34.0486 37.4038L44.5243 32.3435C45.0386 32.093 45.6123 32.1249 46.0976 32.4292C46.5821 32.7329 46.8596 33.2348 46.8596 33.8065C46.8596 34.3934 46.5421 34.936 46.0307 35.2243Z" fill="#FF6B09"/>
<path d="M24.9173 18.2345H23.4297V19.6134H24.9173V18.2345Z" fill="#FF6B09"/>
<path d="M24.9173 20.9919H23.4297V22.3718H24.9173V20.9919Z" fill="#FF6B09"/>
<path d="M24.9173 23.7423H23.4297V25.1216H24.9173V23.7423Z" fill="#FF6B09"/>
</svg>
