<svg width="49" height="47" viewBox="0 0 49 47" fill="none" xmlns="http://www.w3.org/2000/svg">
<g clip-path="url(#clip0)">
<path d="M44.7633 -0.18801H21.7119C20.2113 -0.18801 18.9906 1.03668 18.9906 2.54222V12.1155L1.86542 19.3269C1.67153 19.4085 1.53973 19.592 1.52485 19.8026C1.50996 20.0131 1.6138 20.2142 1.79426 20.3228L3.9782 21.6342V35.6091C2.8614 35.8646 2.02336 36.8674 2.02336 38.0673V39.4144C2.02336 39.7233 2.27316 39.9739 2.58106 39.9739H6.49182C6.79972 39.9739 7.04952 39.7233 7.04952 39.4144V38.0673C7.04952 36.869 6.21134 35.8675 5.09359 35.6104V22.304L6.82041 23.3409C6.76732 23.7404 6.81369 22.6446 6.79572 29.8471C6.79572 32.2147 12.8403 33.483 18.9906 33.5557V44.4617C18.9906 45.0251 19.1625 45.549 19.4565 45.9839C19.9455 46.7097 20.7734 47.188 21.7104 47.188H44.7619C46.261 47.188 47.4806 45.964 47.4806 44.4603C47.4806 44.535 47.4776 42.1501 47.4806 2.54259C47.4806 1.05748 46.2567 -0.18801 44.7633 -0.18801ZM5.93413 38.0673V38.8548H3.13875V38.0673C3.13875 37.2921 3.76434 36.6612 4.53299 36.6612C5.30563 36.6612 5.93413 37.2921 5.93413 38.0673ZM44.7633 46.066H21.7119C21.1588 46.066 20.6702 45.7851 20.3812 45.3588C20.2082 45.102 20.1071 44.7927 20.1071 44.4603V40.6798H46.3623V44.4617C46.3623 45.3381 45.6344 46.066 44.7633 46.066ZM46.3623 39.5608H20.106V33.559C23.1088 33.5245 32.3081 32.861 32.3081 29.8471C32.3048 25.3225 32.3161 23.4877 32.294 23.3324L37.302 20.3228C37.4824 20.2142 37.5863 20.0131 37.5714 19.8026C37.5565 19.592 37.4247 19.4085 37.2308 19.3269L20.106 12.1153V7.44207H46.3623V39.5608ZM19.5483 26.1322C16.4548 26.1322 10.4987 26.533 7.91111 28.2282C7.92753 23.0432 7.7318 23.3809 8.36824 22.9412C9.9756 21.7536 14.573 20.9246 19.5483 20.9246C21.7183 20.9246 31.1927 21.5231 31.1927 23.5357V28.229C28.5809 26.518 22.655 26.1322 19.5483 26.1322ZM20.1071 2.54259C20.1071 1.65558 20.8263 0.933953 21.7104 0.933953H44.7619C45.6468 0.933953 46.3623 1.6657 46.3623 2.54222V6.32302H20.1071V2.54259ZM19.5483 13.0941L35.7835 19.9308L31.7607 22.346C29.622 20.2181 22.5472 19.8055 19.5483 19.8055C16.5454 19.8055 9.47015 20.2194 7.33599 22.3467L3.31194 19.9308L19.5483 13.0941ZM7.91111 29.8471C7.91111 28.9415 11.9079 27.2513 19.5483 27.2513C27.1934 27.2513 31.1927 28.9415 31.1927 29.8471C31.1927 30.7534 27.1934 32.4436 19.5483 32.4436C11.9079 32.4436 7.91111 30.7534 7.91111 29.8471Z" fill="#FF6B09"/>
<path d="M33.2361 41.5235C32.2191 41.5235 31.3916 42.3533 31.3916 43.374C31.3916 44.3947 32.2191 45.2252 33.2361 45.2252C34.2534 45.2252 35.0809 44.3947 35.0809 43.374C35.0809 42.3533 34.2534 41.5235 33.2361 41.5235ZM33.2361 44.1062C32.8341 44.1062 32.507 43.7776 32.507 43.374C32.507 42.9704 32.8341 42.6425 33.2361 42.6425C33.6384 42.6425 33.9655 42.9704 33.9655 43.374C33.9655 43.7776 33.6384 44.1062 33.2361 44.1062Z" fill="#FF6B09"/>
<path d="M35.3635 3.06899H31.1089V4.18803H35.3635V3.06899Z" fill="#FF6B09"/>
</g>
<defs>
<clipPath id="clip0">
<rect width="47.8431" height="47" fill="white" transform="translate(0.588379)"/>
</clipPath>
</defs>
</svg>
