<svg width="46" height="48" viewBox="0 0 46 48" fill="none" xmlns="http://www.w3.org/2000/svg">
<g clip-path="url(#clip0)">
<path d="M45.2261 7.44109C45.2261 7.44005 45.225 7.43901 45.225 7.43745C45.2151 7.41397 45.2031 7.39101 45.189 7.36962C45.1875 7.36805 45.1864 7.36648 45.1854 7.36492C45.1708 7.34301 45.1541 7.32109 45.1348 7.30179L37.9259 0.0934448C37.9071 0.0746622 37.8868 0.0590131 37.8649 0.0444044C37.8607 0.041274 37.8555 0.0386582 37.8513 0.0355278C37.8336 0.0245712 37.8158 0.0146583 37.797 0.0063105C37.7913 0.0037018 37.7861 0.00109285 37.7809 -0.000472367C37.7339 -0.019255 37.6833 -0.0291673 37.6327 -0.0307325C37.6296 -0.0307325 37.627 -0.03125 37.6249 -0.03125H5.86764C5.63233 -0.03125 5.44189 0.159707 5.44189 0.395011V44.3609C5.44189 44.3891 5.44451 44.4162 5.45025 44.4444C5.45285 44.4564 5.45703 44.4674 5.46068 44.4788C5.46538 44.494 5.46903 44.5091 5.47477 44.5237C5.48051 44.5367 5.48781 44.5493 5.49511 44.5623C5.50138 44.5733 5.50659 44.5858 5.51389 44.5967C5.5285 44.6181 5.5452 44.6385 5.56294 44.6567C5.56451 44.6583 5.56503 44.6604 5.56711 44.6614L8.8139 47.9077C8.98034 48.0741 9.24955 48.0741 9.41651 47.9077L12.3633 44.9625L15.309 47.9077C15.392 47.9912 15.5016 48.0324 15.6106 48.0324C15.7191 48.0324 15.8282 47.9912 15.9116 47.9077L18.8569 44.963L21.8036 47.9077C21.9701 48.0741 22.2398 48.0741 22.4063 47.9077L25.3515 44.963L28.2967 47.9077C28.4631 48.0741 28.7329 48.0741 28.8988 47.9077L31.8466 44.9625L34.7918 47.9077C34.8748 47.9912 34.9843 48.0324 35.0929 48.0324C35.2019 48.0324 35.3109 47.9912 35.3944 47.9077L38.3396 44.963L41.2869 47.9077C41.4529 48.0741 41.7231 48.0741 41.889 47.9077L45.1358 44.6614C45.1421 44.6552 45.1468 44.6479 45.1525 44.6411C45.1645 44.627 45.1775 44.6129 45.188 44.5973C45.1979 44.5832 45.2047 44.567 45.2125 44.5519C45.2177 44.542 45.2235 44.5336 45.2266 44.5237C45.2355 44.5044 45.2396 44.4846 45.2449 44.4647C45.2469 44.458 45.2501 44.4517 45.2516 44.4449C45.2574 44.4157 45.2605 44.3875 45.2605 44.3578V7.60388C45.2589 7.54805 45.248 7.49274 45.2261 7.44109ZM38.0501 1.42388L43.8038 7.17709H38.0501V1.42388ZM44.4064 44.1835L41.5864 47.0035L38.6391 44.0583C38.4732 43.8924 38.2035 43.8924 38.037 44.0583L35.0918 47.0035L32.1466 44.0583C31.9802 43.8924 31.7104 43.8924 31.544 44.0583L28.5967 47.0035L25.652 44.0599C25.652 44.0593 25.6515 44.0588 25.6515 44.0583C25.5685 43.9753 25.4595 43.9336 25.3499 43.9336C25.2409 43.9336 25.1318 43.9753 25.0489 44.0583C25.0483 44.0588 25.0483 44.0588 25.0483 44.0588L22.1036 47.0035L19.1569 44.0583C18.9904 43.8924 18.7212 43.8924 18.5542 44.0583L15.609 47.0035L12.6633 44.0583C12.4969 43.8924 12.2276 43.8924 12.0607 44.0583L9.1139 47.0035L6.29337 44.1835V0.82023H37.1981V7.60284C37.1981 7.83814 37.389 8.0291 37.6243 8.0291H44.4059L44.4064 44.1835Z" fill="#FF6B09"/>
<path d="M9.47069 4.8513H23.4251C23.6604 4.8513 23.8514 4.66035 23.8514 4.42504C23.8514 4.18974 23.6604 3.99878 23.4251 3.99878H9.47069C9.23486 3.99878 9.04443 4.18974 9.04443 4.42504C9.04443 4.66035 9.23486 4.8513 9.47069 4.8513Z" fill="#FF6B09"/>
<path d="M9.47069 7.48656H31.8486C32.0839 7.48656 32.2749 7.2956 32.2749 7.06029C32.2749 6.82499 32.0839 6.63403 31.8486 6.63403H9.47069C9.23486 6.63403 9.04443 6.82499 9.04443 7.06029C9.04443 7.2956 9.23486 7.48656 9.47069 7.48656Z" fill="#FF6B09"/>
<path d="M9.04443 9.8522V23.6501C9.04443 23.8854 9.23486 24.0764 9.47069 24.0764H41.229C41.4643 24.0764 41.6547 23.8854 41.6547 23.6501V9.8522C41.6547 9.61689 41.4643 9.42593 41.229 9.42593H9.47069C9.23486 9.42593 9.04443 9.61689 9.04443 9.8522ZM18.4623 10.2785H40.8022V13.9458H18.4623V10.2785ZM18.4623 14.7983H40.8022V18.464H18.4623V14.7983ZM18.4623 19.316H40.8022V23.2238H18.4623V19.316ZM9.89695 10.2785H17.6103V13.9458H9.89695V10.2785ZM9.89695 14.7983H17.6103V18.464H9.89695V14.7983ZM9.89695 19.316H17.6103V23.2238H9.89695V19.316Z" fill="#FF6B09"/>
<path d="M41.229 25.9937H9.47069C9.23486 25.9937 9.04443 26.1846 9.04443 26.4199V40.2173C9.04443 40.4526 9.23486 40.6431 9.47069 40.6431C9.70599 40.6431 9.89643 40.4526 9.89643 40.2173V35.8838H17.6098V40.2173C17.6098 40.4526 17.8008 40.6431 18.0356 40.6431C18.2714 40.6431 18.4618 40.4526 18.4618 40.2173V35.8838H40.8017V40.2173C40.8017 40.4526 40.9926 40.6431 41.2279 40.6431C41.4632 40.6431 41.6537 40.4526 41.6537 40.2173V26.4199C41.6547 26.1846 41.4643 25.9937 41.229 25.9937ZM17.6103 35.0312H9.89695V31.366H17.6103V35.0312ZM17.6103 30.513H9.89695V26.8467H17.6103V30.513ZM40.8022 35.0312H18.4623V31.366H40.8022V35.0312ZM40.8022 30.513H18.4623V26.8467H40.8022V30.513Z" fill="#FF6B09"/>
<path d="M3.42138 -0.0317688C3.18607 -0.0317688 2.99512 0.159188 2.99512 0.394493V44.3604C2.99512 44.5952 3.18607 44.7861 3.42138 44.7861C3.65668 44.7861 3.84763 44.5952 3.84763 44.3604V0.394493C3.84763 0.159188 3.65668 -0.0317688 3.42138 -0.0317688Z" fill="#FF6B09"/>
<path d="M1.07763 -0.0317688C0.842324 -0.0317688 0.651367 0.159188 0.651367 0.394493V44.3604C0.651367 44.5952 0.842324 44.7861 1.07763 44.7861C1.31293 44.7861 1.50336 44.5952 1.50336 44.3604V0.394493C1.50336 0.159188 1.31293 -0.0317688 1.07763 -0.0317688Z" fill="#FF6B09"/>
</g>
<defs>
<clipPath id="clip0">
<rect width="45.3913" height="48" fill="white"/>
</clipPath>
</defs>
</svg>
