<svg width="40" height="47" viewBox="0 0 40 47" fill="none" xmlns="http://www.w3.org/2000/svg">
<path d="M-0.153959 46.638C5.00747 46.638 34.8677 46.638 40.023 46.638C40.222 42.0562 39.8938 34.4543 37.0768 30.8361L36.975 30.7062L30.8192 27.6154C30.9529 27.1646 31.0187 26.7516 31.0451 26.448C31.0755 26.0836 31.0253 25.7413 30.8952 25.4313C29.8796 23.0011 27.7307 21.7226 26.5486 21.1776C26.9089 20.4519 27.1411 19.6727 27.2533 18.8767C27.9224 18.6882 28.4606 18.1579 28.637 17.4505L29.3556 14.5314C29.4829 14.0165 29.403 13.4824 29.1293 13.0283C29.0115 12.8324 28.8592 12.6676 28.6884 12.5267C30.7142 7.92504 27.3213 3.58618 27.1364 3.35779C23.4617 -0.615219 18.8196 0.127683 18.5742 0.171712C11.8751 1.5745 9.28981 6.70865 10.7494 12.7301C10.317 13.2091 10.1355 13.8764 10.2957 14.5307L11.0178 17.453C11.1928 18.1552 11.7268 18.6836 12.3911 18.8743C12.5961 20.3322 13.2132 21.6508 14.1196 22.7135V25.0275C4.50617 29.9506 10.5975 26.8098 2.89339 30.7072C2.87816 30.78 -0.721533 34.6057 -0.186489 45.9452L-0.153959 46.638ZM38.627 45.1834H32.0147V42.4057L36.388 32.394C38.5789 36.0304 38.6603 42.9736 38.627 45.1834ZM29.6024 26.3244C29.3472 29.2557 27.7397 28.3697 26.7474 30.628C25.9669 29.7698 25.7322 28.7407 25.9419 27.6391C26.3209 25.6163 25.0863 25.0155 25.3914 22.8902L25.4377 22.8415V22.8347C25.4639 22.8054 25.7074 22.5155 25.7778 22.4239C28.394 23.5643 29.6534 25.6853 29.6024 26.3244ZM15.5679 24.0204C16.7824 24.8628 18.2484 25.3606 19.8253 25.3606C21.3103 25.3606 22.7208 24.9286 23.93 24.1328C24.0976 25.8037 24.7507 26.1382 24.519 27.3677C24.4755 27.596 24.452 27.8209 24.4381 28.0421L19.9349 33.1174L14.1783 26.6275L15.5679 25.9018V24.0204H15.5679ZM13.7575 17.8091V14.9952C13.7575 13.959 13.7575 9.84797 13.7575 10.051C14.4583 8.75481 15.4137 7.81483 16.6011 7.25126C19.7813 9.0506 23.4418 11.7359 25.8966 14.4385C25.8943 17.8801 25.9063 17.8895 25.8835 18.1723L25.8819 18.1902C25.6904 21.3155 23.1206 23.9061 19.8253 23.9061C16.6216 23.9061 13.9619 21.3908 13.7695 18.1593C13.7596 18.0435 13.7575 17.9274 13.7575 17.8091ZM12.8607 27.3294L19.9349 35.3042L24.6843 29.9514C24.7928 30.264 24.9451 30.5592 25.1192 30.8444L19.9349 37.3276L12.2041 27.659L12.8607 27.3294ZM27.345 16.6387V14.3919C27.4086 14.3189 27.9486 13.6998 27.8849 13.7728C27.9148 14.9104 28.0376 13.5677 27.345 16.6387ZM18.8423 1.60105C19.1296 1.61894 22.99 1.01386 26.0409 4.30773C26.161 4.45848 28.6446 7.65836 27.6468 11.1589C27.3053 9.60123 26.7101 7.60514 25.7693 6.65254L24.7411 7.67669C25.6699 8.61747 26.28 11.4824 26.5124 12.9676C22.2518 8.50928 16.7557 5.68751 16.6803 5.63976C16.4047 5.81119 14.0789 6.25337 12.3897 9.53642L12.3091 9.69338V12.1046C12.2366 12.1054 12.0237 12.1076 12.0962 12.1069C11.023 6.92535 13.0782 2.8092 18.8423 1.60105ZM11.9436 13.6032L12.3091 15.084V16.6405L11.7016 14.1817C11.6125 13.8152 11.884 13.6762 11.9436 13.6032ZM10.8787 28.3244L19.9349 39.6508L26.0622 31.9873C26.7287 32.5838 27.0492 32.6684 28.4624 33.3951L27.9857 31.7783C27.8648 31.3678 28.3436 30.7094 28.6328 30.4068C29.2784 30.0566 29.8165 29.5572 30.2191 28.9406L35.2183 31.4509L30.5663 42.1011V45.1834H9.30278V42.1007L4.64866 31.4519L10.8787 28.3244ZM3.48036 32.3972L7.85442 42.4061V45.1834H1.24206C1.20883 42.9743 1.29086 36.0346 3.48036 32.3972Z" fill="#FF6B09"/>
</svg>
