<svg width="397" height="445" viewBox="0 0 397 445" fill="none" xmlns="http://www.w3.org/2000/svg">
<g clip-path="url(#clip0)">
<path d="M369.707 303.586C364.922 291.965 358.322 280.521 348.669 267.304C324.332 234.127 316.907 160.144 316.824 159.434C316.494 155.886 314.184 152.958 311.132 151.894C307.997 150.829 304.614 151.805 302.387 154.466C273.347 189.684 285.557 244.062 292.157 265.796C293.972 271.739 295.952 278.747 297.353 285.844C308.078 343.238 287.371 369.23 282.503 374.464C277.801 375.883 274.583 375.173 271.613 371.714C261.383 359.561 258.001 319.73 262.786 267.836C263.777 257.28 263.528 247.788 262.126 238.917C252.034 175.133 215.033 134.219 205.613 119.87C179.708 78.3544 177.068 9.25043 176.986 8.62947C176.903 5.34725 175.171 2.41987 172.448 1.00053C169.808 -0.418809 166.591 -0.241391 164.116 1.62149C120.885 33.4679 124.598 110.201 130.62 153.047C132.023 162.982 134.745 173.095 139.448 185.869C156.196 231.554 136.148 290.545 135.983 291.078C135.818 291.61 135.653 292.053 135.57 292.586C133.013 307.134 128.723 315.827 123.938 315.827C123.443 315.827 122.948 315.739 122.37 315.561C116.513 314.231 113.46 307.489 113.378 301.634C113.048 225.966 43.0052 200.506 42.2627 200.24C39.1277 199.176 35.6627 200.151 33.5177 202.901C31.2902 205.651 30.8776 209.466 32.3627 212.659C33.1877 214.522 35.8277 222.683 34.0127 251.514C32.4452 277.417 28.0726 303.053 21.0601 327.626C4.39506 386.528 7.03507 442.326 7.20007 444.987C20.0148 596.064 220.413 622.536 339.346 537.421C352.381 528.107 363.024 517.462 370.861 505.752C414.752 440.108 388.93 350.956 369.707 303.586ZM64.8686 447.914C65.1161 452.793 61.6511 456.963 57.1135 457.229H56.6186C52.246 457.229 48.616 453.592 48.3685 448.89C47.626 435.939 47.791 422.366 48.6985 407.641C49.0285 402.762 52.9885 399.125 57.5261 399.39C62.0636 399.745 65.5286 404.003 65.1986 408.882C64.2903 422.899 64.1261 435.673 64.8686 447.914ZM68.9103 369.319C68.4153 373.843 64.8678 377.125 60.7427 377.125C60.4127 377.125 60.0827 377.125 59.6702 377.036C55.2152 376.415 51.9977 372.069 52.4927 367.19L56.4527 332.948C57.0302 328.158 61.0727 324.698 65.6928 325.23C70.2303 325.851 73.4478 330.287 72.8703 335.166L68.9103 369.319Z" fill="#3D3D3D"/>
<path d="M313.892 121.362C309.393 120.613 306.307 116.091 307 111.253C307.516 107.649 310.497 89.1974 318.586 79.9194C321.699 76.3418 326.912 76.1555 330.248 79.5166C333.571 82.8645 333.74 88.4789 330.622 92.0565C327.199 95.9854 324.281 107.229 323.307 113.957C322.611 118.744 318.459 122.103 313.892 121.362Z" fill="#3D3D3D"/>
<path d="M13.1288 165.55C11.5497 158.952 7.62601 148.072 3.85987 144.52C0.431988 141.289 0.0896109 135.684 3.09427 132.003C6.09151 128.312 11.2997 127.935 14.7359 131.179C23.6261 139.561 28.2709 157.61 29.1132 161.14C30.241 165.883 27.5828 170.708 23.1757 171.929C18.6712 173.147 14.2516 170.214 13.1288 165.55Z" fill="#3D3D3D"/>
</g>
<defs>
<clipPath id="clip0">
<rect width="396.001" height="445" fill="white"/>
</clipPath>
</defs>
</svg>
